<?xml version="1.0" encoding="utf-8"?>
<!-- Generator: Adobe Illustrator 19.0.1, SVG Export Plug-In . SVG Version: 6.00 Build 0)  -->
<!DOCTYPE svg PUBLIC "-//W3C//DTD SVG 1.1//EN" "http://www.w3.org/Graphics/SVG/1.1/DTD/svg11.dtd">
<svg version="1.1" id="Layer_1" xmlns="http://www.w3.org/2000/svg" xmlns:xlink="http://www.w3.org/1999/xlink" x="0px" y="0px"
	 viewBox="0 0 1086 954" style="enable-background:new 0 0 1086 954;" xml:space="preserve">
<style type="text/css">
	.st0{opacity:0.2;}
	.st1{fill:#202120;}
	.st2{fill:#FFFFFF;}
	.st3{fill:none;stroke:#000000;stroke-width:2.6866;stroke-miterlimit:10;}
	.st4{fill:none;stroke:#231F20;stroke-width:2.2642;stroke-linecap:round;stroke-linejoin:round;stroke-miterlimit:10;}
	.st5{fill:#FFFFFF;stroke:#231F20;stroke-width:2.2642;stroke-linecap:round;stroke-linejoin:round;stroke-miterlimit:10;}
	.st6{fill:none;stroke:#231F20;stroke-width:3.615;stroke-linecap:round;stroke-miterlimit:10;}
	.st7{fill:#231F20;}
	.st8{font-family:'Carrosserie-Light';}
	.st9{font-size:104.7575px;}
	.st10{font-family:'Carrosserie-ExtraLight';}
	.st11{font-size:88.9548px;}
</style>
<g>
	<polygon class="st0" points="11.8,65.1 39.2,422.4 1030.4,390.1 1057.2,31 	"/>
	<g id="black_bg">
		<polygon class="st1" points="1046.8,370.1 55.6,402.4 28.1,45.2 1073.6,11.1 		"/>
		<g>
			<g>
				<path class="st2" d="M854.5,77.7l1.3,40.7l-92.4-1.1l2.8,84.5l86.7-9l1.3,41.1l-86.7,9l1.6,47.8l92.2-5.1l1.3,40.7l-133.3,6.4
					L721,77.9L854.5,77.7z"/>
				<g>
					<path class="st2" d="M711.1,334.1l-46.9,2.8l-17.2-185l46.9-1.5L711.1,334.1z"/>
					<path class="st2" d="M702.8,100.9c0.6,17.2-12.9,31.6-30.1,32.2c-17.2,0.6-31.6-12.9-32.2-30.1c-0.6-17.2,12.9-31.6,30.1-32.2
						C687.8,70.2,702.2,83.7,702.8,100.9z"/>
				</g>
				<path class="st2" d="M177.2,311.3L122.3,199l13.3,154.4l-44.9,3.1L73.6,85.3l41.9,0.7l58.4,124.5l50.2-126.8l41.8-3l0.4,265.9
					l-44.9,3.5l3.2-154.5L177.2,311.3z"/>
				<path class="st2" d="M383.6,78.4c0,0,17.4,57.8,39.5,130.1c23.6,77.2,39.3,132.1,39.3,132.1l-49.5,3.7c-1-3.4-5-20.6-11.9-44.6
					l-61.9,4.6c-3.2,24.8-4.6,42.4-5.2,45.9l-49.5,3.7c0,0,7.5-56.6,19.5-136.4c11.2-74.7,25-130.9,25-130.9L383.6,78.4z
					 M389.7,257.2c-17.1-68.8-30.9-108.1-30.9-108.1s-7.9,40.9-14.7,111.5L389.7,257.2z"/>
				<path class="st2" d="M646.9,334.3l-52.5,5.5L543.5,239l-23.8,51.1l4,54.8l-45.8-0.8L458.6,81.7l45.7-3.3l9.9,136.3l65.7-136.1
					l46.8,8l-56.5,108.8L646.9,334.3z"/>
			</g>
			<g>
				<path class="st2" d="M967.1,126c-8.4-9.8-18.1-17.7-29.7-16.7c-13,1.1-24,11.4-22.8,25.8c1.1,12.9,9.6,15.1,35.5,30.3
					c44.2,25.6,61.6,51,64.2,82.7c3.3,39.2-27.4,77.4-65.9,80.7c-25.9,2.2-51.8-8-72.5-30.5l33.4-33.6
					c10.8,16.1,23.3,22.7,35.5,21.6c14.7-1.2,25.5-18.6,24.2-33.7c-1.2-13.7-13.6-32.2-40.7-48.4c-39.7-23.8-55.2-36.2-57.5-64.3
					c-3.1-36.3,24.2-69.4,63.1-72.7c21.9-1.8,44.7,5.7,65.7,27.8L967.1,126z"/>
			</g>
		</g>
	</g>
</g>
<g>
	<path class="st3" d="M344.1,655.9c66.4-14,113,17.2,129.3,93.9c16.3,77-12.5,125.3-72.9,138.1l-42.7,9l-49.4-233.4L344.1,655.9z
		 M432.1,759.2c-8.5-40.3-30-74.1-75-64.6l32.7,154.7C429.2,840.9,443.1,810.8,432.1,759.2z"/>
	<g class="st0">
		<path d="M406.2,843.8c26.6-12.7,35.2-40.9,25.9-84.6c-8.5-40.3-30-74.1-75-64.6l3.3,15.8c29.5,4.6,44.8,32.9,51.7,65.6
			C418.6,805.8,416.6,828.4,406.2,843.8z"/>
		<path d="M400.5,887.8l-42.7,9l-46.9-221.4l-22.4,4.8l49.4,233.4l42.7-9c23.4-5,42-15.3,55.1-30.5
			C425.6,880.3,413.9,885,400.5,887.8z"/>
	</g>
</g>
<g>
	<path class="st3" d="M179.4,887.1l30-29.5c12.2,13.7,26.1,20.4,40.1,16c16.6-5.2,26.5-24.8,19.8-45.9
		c-8.1-25.7-38.5-39.3-79.1-26.5c-3.6,1.1-9,3.2-14.9,6.1l32.4-93.2l-58.2,18.4l-11.1-35.1l125.8-39.7l-35.4,101.9
		c39.2-1.6,69.1,19.7,80.3,55.1c13.2,41.9-8.6,83.8-47.6,96.1C231,920.5,201.7,911.2,179.4,887.1z"/>
	<g class="st0">
		<path d="M158.2,823.8c5.9-2.9,11.3-5,14.9-6.1c40.6-12.8,71,0.8,79.1,26.5c3.1,9.7,2.5,19-0.5,26.8c15.8-5.8,25.1-24.8,18.6-45.4
			c-8.1-25.7-38.5-39.3-79.1-26.5c-3.6,1.1-9,3.2-14.9,6.1l32.4-93.2l-58.2,18.4l-7.4-23.4l-21.9,6.9l11.1,35.1l58.2-18.4
			L158.2,823.8z"/>
		<path d="M262.7,908.8c-30.4,9.6-59.6,0.4-81.8-23.4l-18.6,18.2c22.3,24.1,51.6,33.4,82.2,23.8c16.2-5.1,29.4-15.4,38.4-28.6
			C276.9,903,270.1,906.5,262.7,908.8z"/>
	</g>
</g>
<g>
	<polygon class="st4" points="596.4,873.2 597.8,857.7 681,781 933.9,835.7 928.8,861.3 884.5,946.1 	"/>
	<polygon class="st4" points="710.3,625.7 681,781 933.9,835.7 967.9,680.4 	"/>
	<polygon class="st4" points="597.8,857.7 681,781 933.9,835.7 881.5,929.1 	"/>
	<polygon class="st4" points="646.5,834.2 680.7,804.9 905,854.3 882.5,893.6 	"/>
	<polygon class="st4" points="686.2,798.8 691.9,793.5 914,840.4 908.8,847.2 	"/>
	<polygon class="st4" points="663,860.2 679.8,842.8 830.2,880.4 816,899.7 	"/>
	<polygon class="st4" points="952,695.8 720.9,647.4 696.8,773 924.1,821.3 	"/>
	<line class="st5" x1="827.6" y1="660.2" x2="828.6" y2="660.4"/>
	<line class="st5" x1="724.3" y1="897.4" x2="746.2" y2="902.9"/>
	<line class="st5" x1="657.3" y1="825" x2="889.3" y2="879.3"/>
	<line class="st5" x1="669.6" y1="814.4" x2="897.8" y2="866.9"/>
	<line class="st4" x1="699.6" y1="809" x2="666.6" y2="839.3"/>
	<line class="st4" x1="717.2" y1="812.9" x2="683.7" y2="843.8"/>
	<line class="st4" x1="734.3" y1="816.7" x2="700.4" y2="848"/>
	<line class="st4" x1="750.1" y1="820.1" x2="727.4" y2="841.4"/>
	<line class="st4" x1="768" y1="824.1" x2="745.7" y2="845.6"/>
	<line class="st4" x1="786.5" y1="828.2" x2="762.2" y2="849.5"/>
	<line class="st4" x1="803.5" y1="831.9" x2="779.8" y2="853.7"/>
	<line class="st4" x1="820.8" y1="836.1" x2="797.3" y2="857.9"/>
	<line class="st4" x1="837.3" y1="839.4" x2="802" y2="873.3"/>
	<line class="st4" x1="853.4" y1="843.7" x2="820.9" y2="878"/>
	<line class="st4" x1="871.3" y1="846.8" x2="839.8" y2="882.5"/>
	<line class="st4" x1="888.6" y1="850.6" x2="857.6" y2="887.2"/>
	<line class="st4" x1="892.6" y1="836.4" x2="886.1" y2="842.3"/>
	<line class="st4" x1="872.7" y1="838.3" x2="879.3" y2="833.1"/>
	<line class="st4" x1="858.6" y1="835.8" x2="865.2" y2="830.6"/>
	<line class="st4" x1="844.5" y1="833.4" x2="851.1" y2="828.2"/>
	<line class="st4" x1="831.3" y1="830.1" x2="836.9" y2="825.7"/>
	<line class="st4" x1="817.2" y1="826.6" x2="822.8" y2="822.2"/>
	<line class="st4" x1="805.2" y1="824.2" x2="810.8" y2="819.8"/>
	<line class="st4" x1="795.4" y1="821.9" x2="801" y2="817.5"/>
	<line class="st4" x1="784.9" y1="819.7" x2="790.6" y2="815.3"/>
	<line class="st4" x1="700.9" y1="801.5" x2="706.6" y2="796.6"/>
	<line class="st4" x1="709.7" y1="803.9" x2="715.4" y2="799"/>
	<line class="st4" x1="718.5" y1="805.7" x2="724.2" y2="800.7"/>
	<line class="st4" x1="730.2" y1="808" x2="735.9" y2="803.1"/>
	<line class="st4" x1="741.1" y1="810.3" x2="746.7" y2="805.3"/>
	<line class="st4" x1="751" y1="812.2" x2="756.7" y2="807.2"/>
	<line class="st4" x1="766.2" y1="815.8" x2="771.9" y2="810.9"/>
	<line class="st4" x1="776.4" y1="817.6" x2="782.1" y2="812.6"/>
</g>
<g>
	<path class="st6" d="M558,651.9c-17.6,11.3-23.6,34.2-4,59.2c14.6,18.6,44.7,38.6,69.7,54.8c11.3-11.5,37.6-63.1,45.2-84.8
		c11.3-32.2-13.3-49.2-29.4-48.7c-16.1,0.4-30.8,12.2-36.5,27.3C592.5,645.7,575.7,640.6,558,651.9z"/>
	<path class="st6" d="M575.6,668.7c-12.8,4.2-18.5,19.6-1.6,39.4c9.9,11.6,33.3,30.2,44,34c7.3-7.4,25.8-38.4,30.7-52.4
		c7.3-20.7,5.4-30.7-7.2-34.1c-16-4.3-32,15.5-36.1,23.6C596.4,673.3,586,665.3,575.6,668.7z"/>
	<path class="st6" d="M590.8,687.3c-7.1,2.1-10.1,7.9-0.7,18c5.5,5.8,18.5,15.3,24.4,17.2c4-3.7,12.5-15.4,15.2-22.5
		c4-10.5,4.1-17.5-2.9-19.2c-8.8-2.2-15.4,12-17.7,16.1C604.1,692.8,596.6,685.6,590.8,687.3z"/>
</g>
<g>
	<text transform="matrix(0.9981 -6.080635e-02 6.080635e-02 0.9981 54.8919 544.7285)"><tspan x="0" y="0" class="st7 st8 st9">TOYS FROM THE FUTURE</tspan><tspan x="8" y="75.2" class="st7 st10 st11">MADE IN LONDON, ENGLAND</tspan></text>
	<text transform="matrix(0.9981 -6.080635e-02 6.080635e-02 0.9981 49.407 550.927)" class="st0"><tspan x="0" y="0" class="st7 st8 st9">TOYS FROM THE FUTURE</tspan><tspan x="8" y="75.2" class="st7 st10 st11">MADE IN LONDON, ENGLAND</tspan></text>
</g>
</svg>
