<?xml version="1.0" encoding="utf-8"?>
<!-- Generator: Adobe Illustrator 19.0.1, SVG Export Plug-In . SVG Version: 6.00 Build 0)  -->
<!DOCTYPE svg PUBLIC "-//W3C//DTD SVG 1.1//EN" "http://www.w3.org/Graphics/SVG/1.1/DTD/svg11.dtd">
<svg version="1.1" id="Layer_1" xmlns="http://www.w3.org/2000/svg" xmlns:xlink="http://www.w3.org/1999/xlink" x="0px" y="0px"
	 viewBox="0 0 1940.2 1101" style="enable-background:new 0 0 1940.2 1101;" xml:space="preserve">
<style type="text/css">
	.st0{fill:#BBBBBB;}
	.st1{font-family:'McLaren-Regular';}
	.st2{font-size:150.9083px;}
	.st3{font-size:173.6043px;}
</style>
<g>
	<g id="new_logo">
		<g>
			<path class="st0" d="M1616.2,248.8v84.7l-191.9-8.6v175.8l180.6-12.9v85.5l-180.6,12.9v99.4l191.9-4.3V766l-277.4,4.3v-530
				L1616.2,248.8z"/>
			<g>
				<path class="st0" d="M1301.7,771.7l-97.5,2.7L1181,388.9h97.5L1301.7,771.7z"/>
				<path class="st0" d="M1300.4,286.8c0,35.8-29,64.8-64.8,64.8c-35.8,0-64.8-29-64.8-64.8c0-35.8,29-64.8,64.8-64.8
					C1271.4,222,1300.4,251,1300.4,286.8z"/>
			</g>
			<path class="st0" d="M199.6,688.3l-106.4-237l17.2,321.5l-93.5,3.4L-0.4,211.7l87.1,4.3l112.9,262.6l112.9-260l87.1-3.4
				l-17.2,552.4l-93.5,4.3L306,451.2L199.6,688.3z"/>
			<path class="st0" d="M644,218.4c0,0,32.3,121.2,73.3,272.8c43.8,162,72.7,277,72.7,277l-103.1,4.3c-1.9-7.2-9-43.2-21.6-93.5
				l-128.9,5.3c-8.4,51.2-12.5,87.7-13.8,95l-103.1,4.2c0,0,19.4-117,49.7-282.1c28.3-154.5,60.7-270.2,60.7-270.2L644,218.4z
				 M644.6,590.3c-31-144-56.9-226.6-56.9-226.6s-19.1,84.5-38.1,230.5L644.6,590.3z"/>
			<path class="st0" d="M1173.6,767.8l-109.4,7.8l-99-212.8l-53,104.5l4.6,114.1l-95.1-4.8l-22.2-546.3l95.1-3.8L906,510.4
				l145.8-278.3l96.6,19.7l-124.8,222.2L1173.6,767.8z"/>
		</g>
		<g>
			<path class="st0" d="M1850.2,356.7c-16.9-20.9-36.5-37.9-60.5-36.7c-27,1.4-50.7,22.2-49.1,52.1c1.4,27,18.8,32,71.6,65.3
				c90,56.2,124.4,110.1,127.8,176c4.2,81.6-62.1,159-142.3,163.1c-53.9,2.8-107-20-148.5-68.2l71.6-67.5
				c21.3,34.2,46.8,48.6,72.3,47.3c30.7-1.6,54.1-36.9,52.5-68.4c-1.5-28.4-26.1-67.8-81.3-103.3c-80.8-52.2-112.1-79-115.2-137.5
				c-3.9-75.7,55-142.6,135.9-146.7c45.7-2.3,92.4,14.8,134.6,62.2L1850.2,356.7z"/>
		</g>
	</g>
	<text transform="matrix(1 0 0 1 69.6282 1049.2179)" class="st0 st1 st2">Check out MyMakie.com</text>
	<text transform="matrix(1 0 0 1 -0.3718 152.4459)" class="st0 st1 st3">Create Your Own Doll!</text>
</g>
</svg>
