<?xml version="1.0" encoding="utf-8"?>
<!-- Generator: Adobe Illustrator 18.1.0, SVG Export Plug-In . SVG Version: 6.00 Build 0)  -->
<!DOCTYPE svg PUBLIC "-//W3C//DTD SVG 1.1//EN" "http://www.w3.org/Graphics/SVG/1.1/DTD/svg11.dtd">
<svg version="1.1" id="logo" xmlns="http://www.w3.org/2000/svg" xmlns:xlink="http://www.w3.org/1999/xlink" x="0px" y="0px"
	 viewBox="0 0 1474 453.5" enable-background="new 0 0 1474 453.5" xml:space="preserve">
<path fill="#231F20" d="M354.7,205.1c0-0.5,0-1-0.5-1c-6.6,0.3-93,121.1-111.7,170.3c-5.5,14.6-18.8,24.8-31,25.4
	c-5.6,0.3-10.3-2.6-10.6-8.7c-0.1-2,0.3-4.6,1.2-7.7l54.8-186.2c2.2-7.3,4-12.9,3.9-14.5c0-0.5,0-1-0.6-1
	c-9.7,0.4-92.9,134.8-119.6,197.3c-6.9,16.1-20.3,24.9-31,25.4c-5.6,0.3-10.3-2.6-10.6-8.7c-0.1-2,0.3-4.6,1.2-7.7L159,188.5
	c4.4-15.5,6.3-29.4,5.8-42.1c-1.5-33.1-19.3-54.8-45.8-53.6c-36.7,1.7-58.3,52.7-57,81.7c1.2,26.5,11.3,34.2,20.4,33.7
	c11.7-0.5,15.8-12.5,22.4-12.8c3.6-0.2,6.8,2.8,7.1,11.4c0.9,18.9-21.5,43.3-46.5,44.5c-15.8,0.7-35.1-9.6-36.9-49.3
	C25,126.1,89.5,72.7,134.3,70.7c36.2-1.6,66.9,23,68.9,68.8c0.6,14.2-1.7,30.7-7,48.8l-26.5,90C201,224.8,251.6,149.5,271,126.7
	c11.2-12.8,23.2-18.4,31.8-18.8c7.6-0.4,12.9,3.5,13.2,10.6c0.2,4.1-1.1,9.2-2,11.8l-46.4,157.7c28.5-46.7,72.7-106.4,94.8-136
	c11.6-14.8,24.5-21.5,34.7-22c9.2-0.4,15.5,3.9,15.9,12c0.1,3-1.2,7.7-2.1,10.8l-55.7,188.8c-2.2,6.7-2.9,14.9-2.5,24.1
	c0.9,19.3,8,41,23.8,51.5c3.2,2.4,4.3,4.4,4.4,6.4c0.1,2.6-2.3,4.7-5.9,4.9c-0.5,0-1.5,0.1-2.6-0.4c-35.5-7-56.9-39.8-58.3-70.8
	c-0.3-7.1,0.4-13.8,2.1-20.5l34.5-116.9C353,212.3,354.8,206.6,354.7,205.1z M503.2,386.6c-15.3,0.7-23.3-7.1-25.4-19.2
	c-11.1,13.8-25,21.5-39.3,22.2c-23.4,1.1-44.2-17.9-45.4-44.4c-2.1-46.3,42.5-108.6,102.6-111.3c25.5-1.2,45.8,8.1,46.7,28.5
	c1.2,25.4-21,31.5-29.2,31.9c-7.1,0.3-18.4-1.2-18.7-7.8c-0.3-7.2,15.6-3.8,14.9-20.1c-0.5-10.2-10.8-13.3-21-12.8
	c-36.7,1.7-60.8,53.8-59.4,85.3c0.7,14.3,6.9,28.3,20.1,27.6c10.7-0.5,27.3-16.5,35-39.3c4.9-15.5,20.2-26.4,30.9-26.9
	c5.6-0.3,9.3,2.2,9.5,7.7c0.1,2.1-0.3,4.6-1.2,7.7c-1.7,6.7-11,37.8-10.8,42.3c0.1,2.6,1.2,4.5,4.3,4.4c7.6-0.3,26.9-14.5,50.1-44.1
	c1.9-2.7,5.4-4.3,8.5-4.5c3.1-0.1,5.7,1.3,5.8,4.8c0.2,3.6-1.7,8.2-6.5,14.6C548.3,367.7,521.1,385.8,503.2,386.6z M608.6,281.3
	l-2,10.8c36.5-50.1,64.9-65.7,82.2-66.5c14.3-0.6,21.8,7.7,22.1,15.3c1.8,40.7-55.6,79.1-55.6,79.1c-3,2.2-4,2.8-3.9,4.3
	c0.1,1.5,1.3,5.5,1.9,8.1c4.3,15.1,9.7,22,19.4,21.6c7.1-0.3,24-9.8,49.6-42.6c2.4-2.7,5.4-4.3,8.5-4.5c3.6-0.2,6.2,1.2,6.4,5.3
	c0.1,3.1-2.2,7.8-7,14.1c-25.6,32.8-53.8,52.4-72.1,53.2c-28.5,1.3-38.3-35.5-38.8-46.2c-0.4-9.2,3.5-12.9,11.9-19.9
	c19.6-17.2,38.2-35.9,37.6-49.2c-0.2-3.6-1.8-6-5.4-5.9c-1.5,0.1-3.5,0.7-5.5,1.8c-26.9,15.5-56,59.7-59.8,76.7l-4.2,19.6
	c-3.3,16-19.2,26.9-29.4,27.4c-5.6,0.3-9.8-2.1-10.1-8.7c-0.1-2,0.3-4.1,0.7-6.7l35-151.1c20.8-91.3,69.3-170,91.7-171.5
	c7.1-0.3,12,7.1,12.8,23.9C697.6,139.5,654.5,223.1,608.6,281.3z M616,240.2c26.6-44.1,44.8-92.3,43.3-126
	c-0.4-9.2-2.1-13.2-4.2-13.1c-8.2,0.4-24.8,49.6-35.1,114.4L616,240.2z M753.4,335c-0.9,3.6-1.7,7.7-1.6,10.3
	c0.2,4.1,1.8,6.6,5.4,6.4c7.7-0.3,26.9-14.5,50.1-44.1c2.9-3.7,5.9-4.4,8.5-4.5c3.6-0.2,6.2,1.2,6.3,4.8c0.1,3-1.7,8.2-7,14.6
	c-26.5,34.4-53.8,52.4-71.6,53.2c-18.9,0.8-28-9.9-28.8-27.2c-0.3-5.6,0.5-12.3,2.2-19c6.4-26.8,18.1-51.8,23.1-63.8
	c1.4-3.6,2.3-5.7,2.2-7.2c-0.1-1.5-1.1-2-2.6-1.9c-1.5,0.1-3,0.7-4.6,0.7c-3.6,0.2-7.2-1.2-7.4-4.8c-0.5-10.2,25.7-30.2,51.6-31.4
	c7.1-0.3,10.3,2.6,10.5,7.2c0.3,6.6-4.8,17.6-9.8,30C771.3,279.5,760.3,307.1,753.4,335z M806.3,161.6c0.6,13.7-13,29.7-29.7,30.4
	c-11.7,0.5-21.2-7.2-21.7-17.9c-0.7-14.7,14.5-29.7,30.3-30.4C796.3,143.2,805.7,149.4,806.3,161.6z M948.7,297
	c3.1-0.1,5.7,1.2,5.8,4.8c0.2,3.6-1.7,8.2-6.5,14.6c-24.1,30.7-59.4,52.7-93.5,54.2c-33.1,1.5-59-19.2-60.5-51.3
	c-2.1-46.3,33.7-100.5,90.2-103.1c25.5-1.2,38.4,13.5,39.1,29.3c1.2,27.5-35.4,63.9-70.3,81.8c-2,1.1-4,1.7-5.5,1.8
	c-4.1,0.2-7.2-2.2-7.4-5.8c-0.1-3.1,1.7-6.7,6.6-11c30.9-26.9,40.6-50.4,40-64.1c-0.4-9.7-5.2-14.1-12.4-13.8
	c-21.9,1-45.1,41.4-43.5,76C832,334,847.8,346,869.7,345c21.4-1,47.8-14.4,70.5-43.5C942.1,298.8,945.6,297.2,948.7,297z M991,398.2
	c-24.7,28.2-54.9,39.2-75.2,40.2c-23.9,1.1-42.8-10.3-43.6-26.6c-1.3-29.5,28.2-43.1,63.8-44.8c12.2-0.5,25.5,0.4,38.9,1.8l49-167.5
	c-6.6,0.8-13.2,1.1-19.8,1.4c-23.9,1.1-44.2-7.7-45.4-33.1c-1.3-29.5,26.1-55.3,39.8-55.9c4.6-0.2,6.8,2.8,7,6.8
	c0.3,7.1-5.8,18.1-5.4,27.8c0.8,18.8,14.8,23.3,33.2,22.5l6.6-22.8c11.5-39.3,29.9-93.7,96.1-118.7c7.5-2.9,16.1-4.3,24.3-4.7
	c25.5-1.2,39.4,14,40.4,35.9c2,44.3-51.8,107.5-133.8,132.1l-41.1,139.6c-4.9,16.5-10.9,30.1-18,42.2c16.5,3.8,69.2,18.8,118.1,16.6
	c35.1-1.6,59.2-10.4,71.5-21.6c2.9-2.7,5.9-4.3,8-4.5c2.5-0.1,4.7,1.9,4.8,5.4c0.1,1.5-0.4,3.1-0.8,4.6
	c-10.3,31.1-39,52.3-91.9,54.7C1073.2,431.7,1032.4,411.6,991,398.2z M928.4,413.2c11.2-0.5,26.2-7.8,36.7-22.6
	c-13.4-3-23.2-4.1-30.8-3.7c-15.8,0.7-21.1,8.6-20.7,15.7C914,410.8,919.8,413.6,928.4,413.2z M1184.5,355.7
	c-15.3,0.7-23.3-7.1-25.4-19.2c-11.1,13.8-25,21.5-39.3,22.2c-23.4,1-44.2-17.9-45.4-44.4c-2.1-46.3,42.5-108.6,102.6-111.3
	c25.5-1.2,45.8,8.1,46.7,28.5c1.2,25.4-21,31.5-29.2,31.9c-7.1,0.3-18.4-1.2-18.7-7.8c-0.3-7.2,15.6-3.8,14.9-20.1
	c-0.5-10.2-10.8-13.3-21-12.8c-36.6,1.7-60.8,53.8-59.4,85.3c0.7,14.3,6.9,28.3,20.1,27.7c10.7-0.5,27.3-16.6,34.9-39.4
	c4.9-15.5,20.2-26.4,30.9-26.9c5.6-0.3,9.3,2.2,9.5,7.7c0.1,2.1-0.3,4.6-1.2,7.7c-1.7,6.7-11.1,37.7-10.8,42.3
	c0.1,2.6,1.2,4.5,4.3,4.4c7.7-0.4,26.9-14.5,50.1-44.1c1.9-2.7,5.4-4.3,8.5-4.5c3.1-0.1,5.7,1.3,5.8,4.8c0.2,3.6-1.7,8.2-6.5,14.6
	C1229.6,336.8,1202.3,354.9,1184.5,355.7z M1075.3,164.7c75.7-17.7,90.9-66.4,89.7-91.8c-0.8-18.4-10.8-24.5-22.5-24
	c-30.1,1.4-43.7,38.7-59.7,91L1075.3,164.7z M1301.6,350.4c-27.5,1.2-51.3-16.5-53.3-61.9c-5.7-124.8,68.8-271.5,99.4-272.9
	c6.6-0.3,11.5,7.1,12.3,23.9c2.1,46.9-16.7,114.5-41.2,171.3c7.2-9,18.2-14.6,29.4-15.1c23.9-1.1,43.8,21.5,45.1,50.5
	c0.4,9.2-0.6,19.4-3.8,29.3c22.8-4.6,41.9-21.3,42-41.2c-0.2-4.6,3.3-7.3,6.3-7.4c5.1-0.2,7.4,5.3,7.8,13.9
	c1.3,29-24.9,59.3-69.1,61.3c-1.9,3.1-3.8,6.3-6.2,9C1351.9,334.3,1325,349.3,1301.6,350.4z M1321.1,72.4
	c-10.2,0.5-38.8,111.5-38.4,177.3c27.9-60.4,42.8-147.4,42-165.7C1324.4,75.9,1322.7,72.4,1321.1,72.4z M1308.2,247.5
	c-0.3-5.6,0-11.2,1.3-16.4c-7.9,17.2-16.9,32.9-24.9,46.5c3.6,34,14.6,50.4,34.4,49.5c12.2-0.5,26-10.9,34.5-26.6
	C1322,294.4,1309.2,270.4,1308.2,247.5z M1325.2,240.1c0.8,16.8,14.2,31,36.3,35.1c0.3-4.6,0.6-9.7,0.4-14.3
	c-0.9-20.3-8-41.5-22.3-40.8c-6.6,0.3-12.5,5.2-13.7,11.9C1325.4,234.5,1325.1,237.6,1325.2,240.1z"/>
</svg>
