<?xml version="1.0" encoding="utf-8"?>
<!-- Generator: Adobe Illustrator 19.0.1, SVG Export Plug-In . SVG Version: 6.00 Build 0)  -->
<!DOCTYPE svg PUBLIC "-//W3C//DTD SVG 1.1//EN" "http://www.w3.org/Graphics/SVG/1.1/DTD/svg11.dtd">
<svg version="1.1" id="Capa_1" xmlns="http://www.w3.org/2000/svg" xmlns:xlink="http://www.w3.org/1999/xlink" x="0px" y="0px"
	 viewBox="-1888 1393 49.7 49.7" style="enable-background:new -1888 1393 49.7 49.7;" xml:space="preserve">
<style type="text/css">
	.st0{fill:#BBBBBB;}
</style>
<g>
	<g>
		<g>
			<path class="st0" d="M-1863.2,1422.8c2.7,0,5-2.2,5-5c0-1.1-0.4-2.1-0.9-2.9c-0.9-1.3-2.4-2.1-4-2.1c-1.7,0-3.1,0.8-4,2.1
				c-0.6,0.8-0.9,1.8-0.9,2.9C-1868.1,1420.6-1865.9,1422.8-1863.2,1422.8z"/>
			<polygon class="st0" points="-1852.3,1411.7 -1852.3,1407.6 -1852.3,1407 -1852.9,1407 -1857.1,1407 -1857.1,1411.8 			"/>
			<path class="st0" d="M-1863.2,1393c-13.7,0-24.8,11.1-24.8,24.8c0,13.7,11.1,24.8,24.8,24.8c13.7,0,24.8-11.1,24.8-24.8
				C-1838.3,1404.1-1849.5,1393-1863.2,1393z M-1849.1,1414.9v11.6c0,3-2.4,5.5-5.5,5.5h-17.3c-3,0-5.5-2.4-5.5-5.5v-11.6v-5.8
				c0-3,2.4-5.5,5.5-5.5h17.3c3,0,5.5,2.4,5.5,5.5V1414.9z"/>
			<path class="st0" d="M-1855.5,1417.8c0,4.3-3.5,7.7-7.7,7.7c-4.3,0-7.7-3.5-7.7-7.7c0-1,0.2-2,0.6-2.9h-4.2v11.6
				c0,1.5,1.2,2.7,2.7,2.7h17.3c1.5,0,2.7-1.2,2.7-2.7v-11.6h-4.2C-1855.7,1415.8-1855.5,1416.8-1855.5,1417.8z"/>
		</g>
	</g>
</g>
</svg>
