<?xml version="1.0" encoding="utf-8"?>
<!-- Generator: Adobe Illustrator 19.0.1, SVG Export Plug-In . SVG Version: 6.00 Build 0)  -->
<!DOCTYPE svg PUBLIC "-//W3C//DTD SVG 1.1//EN" "http://www.w3.org/Graphics/SVG/1.1/DTD/svg11.dtd">
<svg version="1.1" id="Capa_1" xmlns="http://www.w3.org/2000/svg" xmlns:xlink="http://www.w3.org/1999/xlink" x="0px" y="0px"
	 viewBox="-1680 1185.1 466.6 466.6" style="enable-background:new -1680 1185.1 466.6 466.6;" xml:space="preserve">
<style type="text/css">
	.st0{fill:#BBBBBB;}
</style>
<g>
	<path class="st0" d="M-1446.7,1185.1c-85.1,0-154.3,69.2-154.3,154.3c0,34.3,21.9,90.2,66.9,170.8c31.8,57.1,63.2,104.6,64.5,106.6
		l22.9,34.8l22.9-34.8c1.3-2,32.6-49.6,64.5-106.6c45-80.7,66.9-136.6,66.9-170.8C-1292.4,1254.3-1361.6,1185.1-1446.7,1185.1z
		 M-1446.7,1418.4c-44.2,0-80-35.8-80-80s35.8-80,80-80s80,35.8,80,80S-1402.5,1418.4-1446.7,1418.4z"/>
</g>
</svg>
